<?xml version="1.0" encoding="utf-8"?>
<!-- Generator: Adobe Illustrator 28.2.0, SVG Export Plug-In . SVG Version: 6.00 Build 0)  -->
<svg version="1.1" id="Calque_1" xmlns="http://www.w3.org/2000/svg" xmlns:xlink="http://www.w3.org/1999/xlink" x="0px" y="0px"
	 viewBox="0 0 69.2 68.6" style="enable-background:new 0 0 69.2 68.6;" xml:space="preserve">
<style type="text/css">
	.st0{fill-rule:evenodd;clip-rule:evenodd;}
</style>
<path class="st0" d="M51.8,50.3l-1.1,1.3c-1.7,1.7-4.4,1.7-6.1,0l-10-10l-10,10c-1.7,1.7-4.4,1.7-6.1,0l-1.1-1.1
	c-1.7-1.7-1.7-4.4,0-6.1l10-10L17.3,24.1c-1.7-1.7-1.7-4.4,0-6.1l1.1-1.1c1.7-1.7,4.4-1.7,6.1,0l10,10l10-10c1.7-1.7,4.4-1.7,6.1,0
	l1.1,1.1c1.7,1.7,1.7,4.4,0,6.1l-10,10l10,10C53.5,45.9,53.5,48.6,51.8,50.3z"/>
</svg>
