<?xml version="1.0" encoding="utf-8"?>
<!-- Generator: Adobe Illustrator 28.2.0, SVG Export Plug-In . SVG Version: 6.00 Build 0)  -->
<svg version="1.1" id="Calque_1" xmlns="http://www.w3.org/2000/svg" xmlns:xlink="http://www.w3.org/1999/xlink" x="0px" y="0px"
	 viewBox="0 0 24 24" style="enable-background:new 0 0 24 24;" xml:space="preserve">
<path d="M21.7,20.3c0.4,0.4,0.4,1,0,1.4C21.5,21.9,21.3,22,21,22s-0.5-0.1-0.7-0.3L12,13.4l-8.3,8.3C3.5,21.9,3.3,22,3,22
	s-0.5-0.1-0.7-0.3c-0.4-0.4-0.4-1,0-1.4l8.3-8.3L2.3,3.7c-0.4-0.4-0.4-1,0-1.4s1-0.4,1.4,0l8.3,8.3l8.3-8.3c0.4-0.4,1-0.4,1.4,0
	s0.4,1,0,1.4L13.4,12L21.7,20.3z"/>
</svg>
