<?xml version="1.0" encoding="utf-8"?>
<!-- Generator: Adobe Illustrator 28.1.0, SVG Export Plug-In . SVG Version: 6.00 Build 0)  -->
<svg version="1.1" id="Calque_1" xmlns="http://www.w3.org/2000/svg" xmlns:xlink="http://www.w3.org/1999/xlink" x="0px" y="0px"
	 viewBox="0 0 26 26" style="enable-background:new 0 0 26 26;" xml:space="preserve">
<style type="text/css">
	.st0{opacity:0.5;fill-rule:evenodd;clip-rule:evenodd;fill:#FFFFFF;stroke:#000000;stroke-width:0.25;stroke-miterlimit:10;}
</style>
<path class="st0" d="M17.5,4.7c-1.7,1.7-0.5,4.6,1.9,4.6c1,0,1.6-0.5,1.8-0.7c0,0,0.1-0.1,0.1-0.1c1.1-1.1,1.1-2.8,0-3.8
	C20.3,3.6,18.6,3.6,17.5,4.7z M18.6,7.4c-1.2-1.1,0.6-2.9,1.7-1.8v0c0.5,0.5,0.5,1.3,0,1.7C19.8,7.9,19,7.9,18.6,7.4z M0.6,13.9
	L14.5,0l10,1.6l1.6,10L12.1,25.4c-0.4,0.4-0.9,0.6-1.4,0.6c-0.5,0-1-0.2-1.4-0.6l-8.7-8.7C0.2,16.3,0,15.8,0,15.3
	C0,14.8,0.2,14.3,0.6,13.9z M9.3,17.6L8.9,18c-0.3,0.3-0.4,0.6-0.6,0.9c-0.1,0.3-0.1,0.7-0.1,1c0.1,0.3,0.3,0.7,0.6,1
	c0.3,0.3,0.6,0.5,1,0.6c0.3,0.1,0.7,0.1,1-0.1c0.3-0.1,0.6-0.3,0.9-0.6l0.4-0.4c0.3-0.3,0.4-0.6,0.6-0.9c0.1-0.3,0.1-0.7,0.1-1
	c-0.1-0.3-0.3-0.7-0.6-1c-0.3-0.3-0.6-0.5-1-0.6c-0.3-0.1-0.7-0.1-1,0C9.8,17.1,9.5,17.3,9.3,17.6z M9.6,18.7l0.4-0.4
	c0.2-0.2,0.5-0.4,0.7-0.4c0.3-0.1,0.5,0,0.8,0.3c0.3,0.3,0.3,0.5,0.3,0.8c-0.1,0.3-0.2,0.5-0.4,0.7L11,20c-0.2,0.2-0.5,0.4-0.7,0.4
	c-0.3,0.1-0.5,0-0.8-0.3c-0.3-0.3-0.3-0.5-0.3-0.8C9.2,19.1,9.4,18.9,9.6,18.7z M9.8,9.9l-0.4,0.4c-0.3,0.3-0.4,0.6-0.6,0.9
	c-0.1,0.3-0.1,0.7-0.1,1c0.1,0.3,0.3,0.7,0.6,1c0.3,0.3,0.6,0.5,1,0.6c0.3,0.1,0.7,0.1,1-0.1c0.3-0.1,0.6-0.3,0.9-0.6l0.4-0.4
	c0.3-0.3,0.4-0.6,0.6-0.9c0.1-0.3,0.1-0.7,0.1-1c-0.1-0.3-0.3-0.7-0.6-1c-0.3-0.3-0.6-0.5-1-0.6c-0.3-0.1-0.7-0.1-1,0
	C10.4,9.4,10.1,9.6,9.8,9.9z M10.1,11l0.4-0.4c0.2-0.2,0.5-0.4,0.7-0.4c0.3-0.1,0.5,0,0.8,0.3c0.3,0.3,0.3,0.5,0.3,0.8
	c-0.1,0.3-0.2,0.5-0.4,0.7l-0.4,0.4c-0.2,0.2-0.5,0.4-0.7,0.4c-0.3,0.1-0.5,0-0.8-0.3c-0.3-0.3-0.3-0.5-0.3-0.8
	C9.8,11.4,9.9,11.2,10.1,11z M16.4,13.7L4.2,16L5,16.8l12.1-2.2L16.4,13.7z"/>
</svg>
