<!DOCTYPE svg PUBLIC "-//W3C//DTD SVG 1.1//EN" "http://www.w3.org/Graphics/SVG/1.1/DTD/svg11.dtd">
<!-- Uploaded to: SVG Repo, www.svgrepo.com, Transformed by: SVG Repo Mixer Tools -->
<svg fill="#ffffff" width="800px" height="800px" viewBox="0 0 32 32" version="1.1" xmlns="http://www.w3.org/2000/svg" transform="matrix(-1, 0, 0, 1, 0, 0)" stroke="#ffffff">
<g id="SVGRepo_bgCarrier" stroke-width="0"/>
<g id="SVGRepo_tracerCarrier" stroke-linecap="round" stroke-linejoin="round"/>
<g id="SVGRepo_iconCarrier"> <title>window</title> <path d="M28 4h-24c-1.105 0-2 0.896-2 2v20c0 1.104 0.895 2 2 2h24c1.104 0 2-0.896 2-2v-20c0-1.104-0.896-2-2-2zM11.562 5.5c0.552 0 0.999 0.448 0.999 1s-0.447 1-0.999 1c-0.553 0-1-0.448-1-1s0.448-1 1-1zM8.5 5.5c0.552 0 1 0.448 1 1s-0.448 1-1 1c-0.553 0-1-0.448-1-1s0.447-1 1-1zM5.499 5.5c0.553 0 1 0.448 1 1s-0.447 1-1 1c-0.552 0-0.999-0.448-0.999-1s0.447-1 0.999-1zM28 26h-24v-16.979h24v16.979zM28 7.021h-14v-1h14v1z"/> </g>
</svg>