<!DOCTYPE svg PUBLIC "-//W3C//DTD SVG 1.1//EN" "http://www.w3.org/Graphics/SVG/1.1/DTD/svg11.dtd">
<!-- Uploaded to: SVG Repo, www.svgrepo.com, Transformed by: SVG Repo Mixer Tools -->
<svg width="800px" height="800px" viewBox="-51.2 -51.2 614.40 614.40" xmlns="http://www.w3.org/2000/svg" fill="#ffffff" stroke="#ffffff">
<g id="SVGRepo_bgCarrier" stroke-width="0"/>
<g id="SVGRepo_tracerCarrier" stroke-linecap="round" stroke-linejoin="round"/>
<g id="SVGRepo_iconCarrier"> <path fill="var(--ci-primary-color, #ffffff)" d="M352,153H40.247a24.028,24.028,0,0,0-24,24V458a24.028,24.028,0,0,0,24,24H352a24.028,24.028,0,0,0,24-24V177A24.028,24.028,0,0,0,352,153Zm-8,32v45.22H48.247V185ZM48.247,450V262.22H344V450Z" class="ci-primary"/> <path fill="var(--ci-primary-color, #ffffff)" d="M472,32H152a24.028,24.028,0,0,0-24,24v65h32V64H464V339.143H408v32h64a24.028,24.028,0,0,0,24-24V56A24.028,24.028,0,0,0,472,32Z" class="ci-primary"/> </g>
</svg>