<?xml version="1.0" encoding="utf-8"?>
<!-- Generator: Adobe Illustrator 28.2.0, SVG Export Plug-In . SVG Version: 6.00 Build 0)  -->
<svg version="1.1" id="Calque_1" xmlns="http://www.w3.org/2000/svg" xmlns:xlink="http://www.w3.org/1999/xlink" x="0px" y="0px"
	 viewBox="0 0 32 32" style="enable-background:new 0 0 32 32;" xml:space="preserve">
<g>
	<path d="M12,19H6c-0.6,0-1,0.4-1,1s0.4,1,1,1h5v5c0,0.6,0.4,1,1,1s1-0.4,1-1v-6C13,19.4,12.6,19,12,19z"/>
	<path d="M26,19h-6c-0.6,0-1,0.4-1,1v6c0,0.6,0.4,1,1,1s1-0.4,1-1v-5h5c0.6,0,1-0.4,1-1S26.6,19,26,19z"/>
	<path d="M12,5c-0.6,0-1,0.4-1,1v5H6c-0.6,0-1,0.4-1,1s0.4,1,1,1h6c0.6,0,1-0.4,1-1V6C13,5.4,12.6,5,12,5z"/>
	<path d="M20,13h6c0.6,0,1-0.4,1-1s-0.4-1-1-1h-5V6c0-0.6-0.4-1-1-1s-1,0.4-1,1v6C19,12.6,19.4,13,20,13z"/>
</g>
</svg>
