<svg width="16" height="17" viewBox="0 0 16 17" fill="none" xmlns="http://www.w3.org/2000/svg"><path d="M11.1778 10.1661L10.9249 10.5061L11.2188 10.8113L15.2715 15.0195L14.7441 15.5274L10.7075 11.3361L10.4001 11.0168L10.0463 11.2837C9.06851 12.0213 7.83309 12.4265 6.52044 12.4265C4.86181 12.4265 3.37036 11.7935 2.2721 10.6904L2.27215 10.6904L2.26607 10.6845C-0.0833187 8.40347 -0.0940419 4.61907 2.26603 2.24222C3.45879 1.12685 4.95601 0.5 6.52044 0.5C8.08742 0.5 9.5773 1.12825 10.6775 2.23003C11.7881 3.42808 12.413 4.93284 12.413 6.50606C12.413 7.86867 11.982 9.08467 11.1778 10.1661ZM6.52943 11.831C9.4963 11.831 11.9014 9.42583 11.9014 6.45896C11.9014 3.49209 9.4963 1.08696 6.52943 1.08696C3.56256 1.08696 1.15744 3.49209 1.15744 6.45896C1.15744 9.42583 3.56256 11.831 6.52943 11.831Z" fill="#808080" stroke="#808080"/></svg>